<svg width="61" height="61" viewBox="0 0 61 61" fill="none" xmlns="http://www.w3.org/2000/svg">
<circle opacity="0.25" cx="30.5" cy="30.5" r="30.5" fill="#82AE93"/>
<path fill-rule="evenodd" clip-rule="evenodd" d="M19.8421 13H41.1579C42.7275 13 44 14.2725 44 15.8421V44.2632C43.9996 45.3043 43.4299 46.2618 42.5152 46.759C41.6005 47.2563 40.4871 47.2135 39.6132 46.6477L30.6933 40.8768C30.5758 40.8002 30.4242 40.8002 30.3067 40.8768L21.3854 46.6491C20.5113 47.2143 19.3982 47.2565 18.4838 46.759C17.5695 46.2616 17.0002 45.3041 17 44.2632V15.8421C17 14.2725 18.2725 13 19.8421 13ZM35.2952 32.7663C35.4543 32.6226 35.5038 32.3934 35.4183 32.1969L33.7514 28.3615C33.6909 28.2208 33.7269 28.0573 33.8409 27.9551L36.7 25.4085C36.8544 25.2709 36.9078 25.0523 36.8344 24.859C36.7609 24.6657 36.5757 24.5378 36.3689 24.5374H32.9726C32.8306 24.5377 32.702 24.4533 32.6458 24.3228L30.9576 20.4064C30.8785 20.2241 30.6987 20.1062 30.5 20.1062C30.3013 20.1062 30.1215 20.2241 30.0424 20.4064L28.3542 24.3228C28.2979 24.4533 28.1694 24.5377 28.0274 24.5374H24.631C24.4242 24.5378 24.2391 24.6657 24.1656 24.859C24.0921 25.0523 24.1456 25.2709 24.2999 25.4085L27.1591 27.9536C27.2731 28.0559 27.3091 28.2194 27.2486 28.3601L25.5817 32.1969C25.4961 32.3934 25.5457 32.6226 25.7048 32.7663C25.8639 32.9099 26.0969 32.9358 26.2837 32.8307L30.3252 30.557C30.4332 30.496 30.5653 30.496 30.6734 30.557L34.7163 32.8307C34.903 32.9358 35.1361 32.9099 35.2952 32.7663Z" fill="#3C6A73"/>
</svg>
