<svg width="61" height="61" viewBox="0 0 61 61" fill="none" xmlns="http://www.w3.org/2000/svg">
<circle opacity="0.25" cx="30.5" cy="30.5" r="30.5" fill="#82AE93"/>
<path fill-rule="evenodd" clip-rule="evenodd" d="M45.1958 26.3321C45.1958 18.4167 38.779 12 30.8636 12C22.9482 12 16.5315 18.4167 16.5315 26.3321C16.5315 34.2476 22.9482 40.6643 30.8636 40.6643C38.7753 40.6553 45.1867 34.2438 45.1958 26.3321ZM16.5135 35.3768C16.6554 35.3715 16.7897 35.4412 16.8673 35.5602C18.8593 38.58 21.7705 40.8783 25.1701 42.1153C25.2846 42.1563 25.3748 42.2465 25.4158 42.361C25.4569 42.4759 25.4449 42.6031 25.383 42.7083L22.1398 48.1971C21.817 48.7418 21.2091 49.0516 20.5786 48.9928C19.9481 48.9339 19.408 48.517 19.1915 47.9219L17.8271 44.1742L13.9107 44.8376C13.2848 44.9433 12.6542 44.6779 12.2923 44.1564C11.9304 43.6349 11.9024 42.9513 12.2204 42.402L16.1711 35.5799C16.2424 35.4575 16.3719 35.3807 16.5135 35.3768ZM45.5234 35.6226L49.4545 42.4005V42.3972C49.7731 42.9464 49.7457 43.6302 49.3841 44.1521C49.0225 44.674 48.3919 44.9399 47.7657 44.8345L43.8477 44.1711L42.485 47.9171C42.27 48.513 41.7306 48.9315 41.1 48.9918C40.4694 49.052 39.8606 48.7432 39.5366 48.1989L36.3017 42.7232C36.2397 42.6174 36.2277 42.4897 36.2689 42.3743C36.3104 42.2595 36.4012 42.1693 36.5162 42.1286C39.9157 40.9011 42.8301 38.6126 44.8289 35.6013C44.9073 35.4838 45.0408 35.415 45.182 35.4193C45.3233 35.4236 45.4523 35.5005 45.5234 35.6226ZM37.3039 24.6384C36.8495 23.9449 36.0759 23.5273 35.2468 23.528L32.6474 23.5247V20.904C32.6474 19.4331 32.0462 18.9941 31.5548 18.8844C30.7424 18.813 29.9891 19.3145 29.7416 20.0916L29.7381 20.0993C28.6534 22.4535 27.6286 24.6779 26.0497 24.6779H24.9309C24.4786 24.6779 24.112 25.0445 24.112 25.4968V30.2895C24.112 30.7418 24.4786 31.1085 24.9309 31.1085C26.1969 30.9856 27.474 31.167 28.6557 31.6375C29.3327 31.954 30.0761 32.1023 30.8227 32.07H33.1257C34.388 32.116 35.5529 31.3943 36.074 30.2436L37.5006 26.9677C37.8323 26.2078 37.7583 25.3319 37.3039 24.6384Z" fill="#3C6A73"/>
</svg>
