<svg width="61" height="61" viewBox="0 0 61 61" fill="none" xmlns="http://www.w3.org/2000/svg">
<circle opacity="0.25" cx="30.5" cy="30.5" r="30.5" fill="#82AE93"/>
<path d="M46.4747 39.5114C45.3763 37.2552 40.7475 35.6919 34.9466 33.5013C34.3312 33.2691 33.9225 32.671 33.9219 32.002V30.9059C33.9218 30.6904 34.089 30.5136 34.3001 30.5058C36.9865 30.7288 39.6741 30.0917 41.9886 28.6833C42.187 28.5579 42.3203 28.3491 42.3524 28.1134C42.3846 27.8778 42.3122 27.6397 42.155 27.4639C41.168 26.3599 40.4854 25.0269 40.1936 20.6393C39.6758 12.7682 34.4711 10 29.9992 10C25.5273 10 20.3226 12.7682 19.8001 20.6409C19.5083 25.0285 18.8257 26.3615 17.8388 27.4655C17.6815 27.6413 17.6091 27.8794 17.6413 28.115C17.6734 28.3507 17.8068 28.5595 18.0051 28.6849C20.3051 30.1155 22.9915 30.7639 25.6764 30.5362C25.7819 30.5336 25.8839 30.5747 25.9593 30.65C26.0347 30.7254 26.0769 30.8286 26.0765 30.9363V32.002C26.0766 32.6716 25.6677 33.2705 25.0519 33.5029C19.251 35.6919 14.6221 37.2552 13.5238 39.5114C12.6899 41.2734 12.1748 43.1745 12.0033 45.1231C11.983 45.3477 12.0566 45.5707 12.206 45.7371C12.3553 45.9034 12.5667 45.9977 12.7879 45.9968H24.6737C24.9356 45.9967 25.1802 45.8634 25.3258 45.6414C25.4714 45.4194 25.4987 45.1379 25.3986 44.8911L22.9932 38.9674C22.8778 38.6849 22.9488 38.359 23.1705 38.1529C23.3918 37.9463 23.7152 37.9005 23.9833 38.0377C27.7547 40.0213 32.2255 40.0617 36.0308 38.1465C36.3027 38.0095 36.6298 38.0622 36.847 38.278C37.0643 38.4938 37.1245 38.8258 36.9974 39.1066L34.4586 44.8799C34.3529 45.1269 34.3762 45.4116 34.5207 45.6373C34.6652 45.863 34.9113 45.9993 35.1756 46H47.2121C47.4333 46.0009 47.6447 45.9066 47.794 45.7403C47.9434 45.5739 48.017 45.3509 47.9967 45.1263C47.825 43.1765 47.3094 41.2743 46.4747 39.5114Z" fill="#3C6A73"/>
</svg>
