<svg width="61" height="61" viewBox="0 0 61 61" fill="none" xmlns="http://www.w3.org/2000/svg">
<circle opacity="0.25" cx="30.5" cy="30.5" r="30.5" fill="#82AE93"/>
<path fill-rule="evenodd" clip-rule="evenodd" d="M12 30C12 20.0589 20.0589 12 30 12C39.9367 12.0107 47.9893 20.0633 48 30C48 39.9411 39.9411 48 30 48C20.0589 48 12 39.9411 12 30ZM27 25.5C27 23.8431 25.6569 22.5 24 22.5C22.3431 22.5 21 23.8431 21 25.5C21 27.1569 22.3431 28.5 24 28.5C25.6569 28.5 27 27.1569 27 25.5ZM22.5885 35.5636C22.7054 35.3599 22.9221 35.2341 23.157 35.2336H36.8415C37.0765 35.2338 37.2935 35.3593 37.411 35.5628C37.5285 35.7663 37.5287 36.0169 37.4115 36.2206C35.8824 38.868 33.0572 40.4987 30 40.4987C26.9427 40.4987 24.1176 38.868 22.5885 36.2206C22.4705 36.0175 22.4705 35.7667 22.5885 35.5636ZM38.8213 27.6184C39.1842 27.7816 39.597 27.7939 39.969 27.6526C40.3413 27.5114 40.6423 27.228 40.8055 26.8647C40.9687 26.5015 40.9807 26.0882 40.839 25.7161C40.2273 23.8006 38.4473 22.5004 36.4365 22.5004C34.4257 22.5004 32.6456 23.8006 32.034 25.7161C31.7391 26.4907 32.1279 27.3577 32.9025 27.6526C33.6771 27.9475 34.5441 27.5587 34.839 26.7841C35.0546 26.0669 35.6897 25.5565 36.4365 25.5001C37.1829 25.5563 37.8178 26.066 38.034 26.7826C38.1752 27.1546 38.4584 27.4553 38.8213 27.6184Z" fill="#3C6A73"/>
</svg>
