<svg width="38" height="38" viewBox="0 0 38 38" fill="none" xmlns="http://www.w3.org/2000/svg">
<circle cx="19" cy="19" r="19" fill="#E0EBE4"/>
<path fill-rule="evenodd" clip-rule="evenodd" d="M6 19.0025C6 11.8214 11.8214 6 19.0025 6C26.1804 6.00776 31.9972 11.8246 32.005 19.0025C32.005 26.1836 26.1836 32.005 19.0025 32.005C11.8214 32.005 6 26.1836 6 19.0025ZM14.6683 24.5701C14.669 24.7643 14.7736 24.9433 14.9425 25.0393C15.1094 25.1363 15.3154 25.1371 15.4832 25.0415L25.2231 19.4731C25.3918 19.3766 25.4959 19.1972 25.4959 19.0029C25.4959 18.8085 25.3918 18.6291 25.2231 18.5326L15.4788 12.9643C15.311 12.8684 15.1048 12.8692 14.9378 12.9664C14.7707 13.0636 14.668 13.2424 14.6683 13.4356V24.5701Z" fill="#3C6A73"/>
</svg>
